General
Complete name                    : War [2007] BRrip by Arihant !!!Team TDT & SDR!!!.mkv
Format                           : Matroska
File size                        : 573 MiB
Duration                         : 1h 38mn
Overall bit rate                 : 811 Kbps


Video
ID                               : 1
Format                           : AVC
Format/Info                      : Advanced Video Codec
Format profile                   : High@L3.0
Format settings, CABAC           : Yes
Format settings, ReFrames        : 4 frames
Duration                         : 1h 38mn
Bit rate                         : 667 Kbps
Width                            : 720 pixels
Height                           : 304 pixels
Display aspect ratio             : 2.35:1
Frame rate                       : 25.000 fps
Original frame rate              : 23.976 fps
Resolution                       : 8 bits
Colorimetry                      : 4:2:0
Scan type                        : Progressive
Bits/(Pixel*Frame)               : 0.122
Stream size                      : 471 MiB (82%)
Title                            : BLU RAY VIDEO BY ARIHANT

Audio
ID                               : 2
Format                           : AC-3
Format/Info                      : Audio Coding 3
Format_Settings_ModeExtension    : CM (complete main)
Codec ID                         : A_AC3
Duration                         : 1h 38mn
Bit rate mode                    : Constant
Bit rate                         : 128 Kbps
Channel(s)                       : 2 channels
Channel positions                : Front: L R
Sampling rate                    : 48.0 KHz
Video delay                      : 32ms
Stream size                      : 90.4 MiB (16%)
Title                            : HINDI AUDIO BY ARIHANT
Language                         : Hindi